<?xml version="1.0" encoding="UTF-8"?>
<svg xmlns="http://www.w3.org/2000/svg" version="1.1" width="1024" height="1024" style="background-color:transparent;">
  <path d="M0 0 C337.92 0 675.84 0 1024 0 C1024 337.92 1024 675.84 1024 1024 C686.08 1024 348.16 1024 0 1024 C0 686.08 0 348.16 0 0 Z " fill="#FEFEFE" transform="translate(0,0)"/>
  <path d="M0 0 C1.18335938 0.96099609 1.18335938 0.96099609 2.390625 1.94140625 C3.69773437 2.94880859 3.69773437 2.94880859 5.03125 3.9765625 C23.0126838 18.13051968 36.13829558 35.14259953 47.390625 54.94140625 C47.80086914 55.64958496 48.21111328 56.35776367 48.63378906 57.08740234 C51.4003068 62.14749842 51.4003068 62.14749842 51.359375 65.50390625 C50.06400028 68.7632362 48.5629466 71.86347467 46.890625 74.94140625 C46.53605225 75.59786133 46.18147949 76.25431641 45.81616211 76.93066406 C26.69190134 111.62604426 -5.83130809 140.39825661 -44.171875 151.69140625 C-82.61599572 162.5541561 -120.6996651 158.96372799 -155.875 139.70068359 C-164.77421808 134.58883508 -172.91229464 128.74162916 -180.609375 121.94140625 C-181.09889648 121.51746582 -181.58841797 121.09352539 -182.09277344 120.65673828 C-189.37503705 114.33728505 -195.77928745 107.64950431 -201.609375 99.94140625 C-202.40988281 98.90628906 -203.21039062 97.87117187 -204.03515625 96.8046875 C-209.04459477 90.17589841 -213.33020181 83.24115263 -217.296875 75.94140625 C-217.74345459 75.14025391 -218.19003418 74.33910156 -218.65014648 73.51367188 C-220.46617719 70.05954588 -221.61928599 67.7402317 -221.5703125 63.79296875 C-210.30972401 30.37740127 -179.76282387 1.71829174 -148.84765625 -13.97949219 C-101.22262655 -36.94007588 -42.30810272 -32.92847617 0 0 Z " fill="#051C3C" transform="translate(871.609375,497.05859375)"/>
  <path d="M0 0 C4.4350517 3.16906088 8.21483055 6.70309859 10.68359375 11.640625 C10.78213809 13.73310989 10.81431121 15.82881259 10.81730652 17.9236145 C10.81957208 18.57556978 10.82183763 19.22752506 10.82417184 19.89923656 C10.83052596 22.09446324 10.82968153 24.2896284 10.82885742 26.48486328 C10.8318484 28.05523763 10.83525079 29.62561125 10.83903503 31.19598389 C10.84789451 35.47366675 10.85021422 39.75132963 10.85085082 44.02902079 C10.85156127 46.70629872 10.85369569 49.38357157 10.85634804 52.06084824 C10.86561425 61.41605705 10.86968213 70.77125159 10.86889648 80.12646484 C10.86829826 88.81832006 10.87879633 97.51011269 10.89464015 106.2019521 C10.90777897 113.67904135 10.9130776 121.15611034 10.91244107 128.63321102 C10.91218755 133.09160803 10.9149563 137.54994968 10.92561913 142.00833511 C10.93540489 146.21574271 10.93530866 150.42304332 10.92810249 154.63045502 C10.92706888 156.16211735 10.92934525 157.6937867 10.93546295 159.22543716 C11.02717605 183.81177967 7.50682016 208.6760162 -10.46875 226.88671875 C-29.84556927 245.62561804 -52.22526895 250.24374613 -78.36328125 249.921875 C-98.15234178 249.28638815 -118.42457165 241.82031954 -132.1875 227.26953125 C-144.41892966 212.16539884 -149.9107282 192.85703478 -149.31640625 173.640625 C-118.04699858 170.34067726 -118.04699858 170.34067726 -102.31640625 170.640625 C-102.15785156 171.76339844 -101.99929687 172.88617187 -101.8359375 174.04296875 C-99.76246259 188.59367641 -99.76246259 188.59367641 -90.69140625 199.640625 C-83.98124748 203.61701538 -76.45215074 203.6040874 -68.859375 202.1796875 C-64.00585433 200.60206128 -60.82184764 198.00142169 -58.31640625 193.640625 C-53.96265399 184.81714575 -53.7576622 176.22415769 -53.83398438 166.60351562 C-53.83179418 165.01384649 -53.82779086 163.42417899 -53.8221283 161.83451843 C-53.81361167 158.43186036 -53.81727797 155.02951892 -53.83055115 151.62687683 C-53.85101417 146.23767928 -53.8408563 140.84879573 -53.82629395 135.45959473 C-53.79962047 124.0199094 -53.80625174 112.58032803 -53.81640625 101.140625 C-53.82737182 88.7872182 -53.83249234 76.43397555 -53.79911184 64.08059645 C-53.78579706 58.73206693 -53.79161344 53.38401537 -53.81247711 48.03551483 C-53.82150822 44.69928355 -53.81394889 41.36323363 -53.8020649 38.02701759 C-53.79994726 36.49001757 -53.80457765 34.95298972 -53.81677055 33.41603661 C-53.89500949 22.9574659 -53.39786081 13.01673485 -46.25390625 4.765625 C-34.25857079 -6.0353697 -13.93557772 -8.17804561 0 0 Z " fill="#051C3C" transform="translate(280.31640625,426.359375)"/>
  <path d="M0 0 C13.08976191 10.70770277 19.32368397 25.14848004 21.2109375 41.80859375 C21.34514454 45.40940335 21.33749383 49.00618593 21.32446289 52.60913086 C21.32460892 53.67329224 21.32475494 54.73745361 21.3249054 55.8338623 C21.32421138 59.33457512 21.31644295 62.83523404 21.30859375 66.3359375 C21.30672775 68.76973949 21.30530471 71.20354186 21.30430603 73.63734436 C21.30049516 80.03074182 21.29067709 86.42411643 21.27960205 92.81750488 C21.26935717 99.3464324 21.26480182 105.87536363 21.25976562 112.40429688 C21.24905352 125.20574081 21.23146831 138.0071618 21.2109375 150.80859375 C7.3509375 150.80859375 -6.5090625 150.80859375 -20.7890625 150.80859375 C-20.7890625 144.86859375 -20.7890625 138.92859375 -20.7890625 132.80859375 C-21.4490625 132.80859375 -22.1090625 132.80859375 -22.7890625 132.80859375 C-23.01851563 133.37835937 -23.24796875 133.948125 -23.484375 134.53515625 C-29.21837734 144.52674116 -42.96299501 150.66397407 -53.6015625 153.68359375 C-67.56796018 156.49709003 -83.63644897 156.71464178 -96.7890625 150.80859375 C-97.58957031 150.45796875 -98.39007813 150.10734375 -99.21484375 149.74609375 C-110.09908523 144.33217053 -117.53935871 136.16506571 -121.7890625 124.80859375 C-125.41388921 112.57167875 -125.65746358 98.37228673 -119.7890625 86.80859375 C-117.73424467 83.50007693 -115.45137483 80.6465638 -112.7890625 77.80859375 C-112.21542969 77.19371094 -111.64179688 76.57882812 -111.05078125 75.9453125 C-93.57303972 59.0663801 -66.00536344 57.78527424 -43.1640625 55.62109375 C-41.85103149 55.49516846 -41.85103149 55.49516846 -40.51147461 55.36669922 C-34.26008311 54.81763458 -28.06243619 54.72081753 -21.7890625 54.80859375 C-22.86029464 39.68053064 -22.86029464 39.68053064 -31.1640625 27.43359375 C-39.23842936 22.43517617 -49.91369527 22.53511514 -58.9609375 24.49609375 C-65.03664062 26.51013898 -69.52697134 29.0137412 -73.7890625 33.80859375 C-74.7790625 37.10859375 -75.7690625 40.40859375 -76.7890625 43.80859375 C-91.3090625 43.80859375 -105.8290625 43.80859375 -120.7890625 43.80859375 C-117.96108914 26.84075362 -113.19551691 12.39176929 -99.6015625 0.99609375 C-72.31890511 -18.28992268 -27.32116911 -20.55719035 0 0 Z " fill="#051C3C" transform="translate(434.7890625,520.19140625)"/>
  <path d="M0 0 C13.19640009 10.44882134 19.08791013 25.6406578 21 42 C21.13486461 45.50900313 21.12659335 49.01392887 21.11352539 52.52514648 C21.11367142 53.56004715 21.11381744 54.59494781 21.1139679 55.66120911 C21.11327407 59.06452569 21.10550652 62.46778679 21.09765625 65.87109375 C21.09579019 68.23763499 21.09436717 70.60417662 21.09336853 72.97071838 C21.08955818 79.18656488 21.07974056 85.40238786 21.06866455 91.6182251 C21.05841855 97.96618329 21.05386408 104.31414529 21.04882812 110.66210938 C21.03811695 123.10808489 21.02053216 135.55403681 21 148 C6.15 148 -8.7 148 -24 148 C-24.02578125 140.98105469 -24.0515625 133.96210937 -24.078125 126.73046875 C-24.1033082 122.2688443 -24.12965257 117.80728664 -24.16015625 113.34570312 C-24.20840311 106.27286575 -24.25248107 99.20018311 -24.27099609 92.12719727 C-24.28620281 86.42115837 -24.32072001 80.7155258 -24.36830902 75.00966835 C-24.38308139 72.83895727 -24.39103862 70.66818817 -24.39188385 68.49742699 C-24.30924001 50.98243734 -24.30924001 50.98243734 -30.875 35 C-37.56851893 28.70021747 -45.50474881 28.55160511 -54.23046875 28.72265625 C-59.25078121 29.09202639 -62.80495775 30.27151724 -67 33 C-67.63421875 33.4125 -68.2684375 33.825 -68.921875 34.25 C-75.28544605 39.03627566 -78.79132959 46.21995396 -80 54 C-80.16400678 57.06489855 -80.18480824 60.1277217 -80.20532227 63.1965332 C-80.21522186 64.11409897 -80.22512146 65.03166473 -80.23532104 65.97703552 C-80.26683901 69.00159143 -80.29165507 72.02616303 -80.31640625 75.05078125 C-80.33698415 77.15114239 -80.35798085 79.25149947 -80.37937927 81.35185242 C-80.43451352 86.8739187 -80.4839609 92.39602183 -80.53222656 97.91815186 C-80.59134815 104.54704051 -80.65752849 111.17586199 -80.72252655 117.80469513 C-80.82042725 127.86975565 -80.90935781 137.9348597 -81 148 C-95.52 148 -110.04 148 -125 148 C-125 96.19 -125 44.38 -125 -9 C-110.81 -9 -96.62 -9 -82 -9 C-81.505 0.405 -81.505 0.405 -81 10 C-79.865625 8.80375 -78.73125 7.6075 -77.5625 6.375 C-57.15522833 -13.7834025 -23.62105525 -15.7371446 0 0 Z " fill="#051C3C" transform="translate(606,523)"/>
  <path d="M0 0 C2.52060966 2.20169106 4.89606938 4.48504153 7.25 6.86328125 C7.94738281 7.52714844 8.64476562 8.19101562 9.36328125 8.875 C21.32925084 21.07331852 26.13834123 37.48272194 26.4375 54.17578125 C26.232462 71.80904899 20.28798413 87.63996257 8.0625 100.55078125 C-7.35362122 115.08301019 -24.46913718 119.41530221 -45.14453125 119.140625 C-52.18083167 118.90384342 -58.19142964 117.50826727 -64.75 114.86328125 C-65.75933594 114.46238281 -66.76867187 114.06148437 -67.80859375 113.6484375 C-79.92967955 108.21049914 -90.04840013 99.32960241 -96.75 87.86328125 C-97.13414062 87.24453125 -97.51828125 86.62578125 -97.9140625 85.98828125 C-106.42263117 70.91967108 -107.97601924 51.16667473 -103.57958984 34.69482422 C-99.98562412 22.30692061 -93.75609948 13.79140584 -84.75 4.86328125 C-84.11449219 4.19425781 -83.47898437 3.52523438 -82.82421875 2.8359375 C-60.76006202 -18.73899181 -23.62225795 -18.35422599 0 0 Z " fill="#FDFDFD" transform="translate(825.75,508.13671875)"/>
  <path d="M0 0 C10.72986645 8.43060936 16.69904249 18.14840809 18.5625 31.8125 C18.64827811 34.46647321 18.68932576 37.09262984 18.67602539 39.74560547 C18.67617142 40.5170137 18.67631744 41.28842194 18.6764679 42.08320618 C18.67577508 44.61539591 18.66801241 47.14751072 18.66015625 49.6796875 C18.65828983 51.4423112 18.65686698 53.20493541 18.65586853 54.96755981 C18.65206103 59.59368334 18.64224589 64.21977518 18.63116455 68.84588623 C18.62091238 73.57173229 18.61636277 78.29758351 18.61132812 83.0234375 C18.60062198 92.28647221 18.58356686 101.54948346 18.5625 110.8125 C14.92849658 110.11660377 11.57136387 109.1961468 8.08203125 107.95703125 C-18.37056308 98.73356062 -44.79261111 93.67523844 -72.4375 89.8125 C-72.53085842 82.08370329 -72.60159439 74.35504275 -72.64474869 66.62582111 C-72.66547799 63.03541729 -72.69352042 59.44540385 -72.73925781 55.85522461 C-72.7832481 52.37978053 -72.80674676 48.90470794 -72.81700897 45.42900658 C-72.82781783 43.4811361 -72.85895527 41.53341166 -72.89068604 39.58576965 C-72.89420486 25.37318838 -69.09685092 14.43348749 -59.6640625 3.81640625 C-44.81315788 -10.75251917 -16.89945918 -11.11126521 0 0 Z " fill="#051C3C" transform="translate(492.4375,389.1875)"/>
  <path d="M0 0 C9.47351687 6.68718838 13.50153115 15.94572359 16 27 C16.48010517 31.81277086 16.47074196 36.56181735 16.390625 41.39453125 C16.38496521 42.70789963 16.37930542 44.02126801 16.37347412 45.37443542 C16.35840624 48.81873644 16.31929575 52.26233217 16.2746582 55.70635986 C16.23329079 59.2396898 16.21537586 62.77313687 16.1953125 66.30664062 C16.1527762 73.20471166 16.08476321 80.10232172 16 87 C15.08438293 87.16562943 14.16876587 87.33125885 13.22540283 87.50190735 C-10.92334159 91.88373757 -33.8029898 97.17783899 -56 108 C-57.0521167 108.51240234 -57.0521167 108.51240234 -58.12548828 109.03515625 C-62.10409265 110.98416291 -66.06033977 112.97316515 -70 115 C-74.18553416 106.62893167 -72.18006366 93.56126119 -72.203125 84.24609375 C-72.20595238 83.46545122 -72.20877975 82.68480869 -72.21169281 81.88051033 C-72.22656295 77.75700686 -72.23587168 73.63353733 -72.24023438 69.51000977 C-72.24573209 65.28511746 -72.2698225 61.06054522 -72.29820633 56.83575344 C-72.31693637 53.55238455 -72.32204357 50.26909168 -72.32357025 46.9856739 C-72.32656888 45.4289479 -72.33450123 43.87222232 -72.34775543 42.31554985 C-72.46905845 26.98850213 -70.13645709 13.38955839 -59 2 C-42.55490826 -11.78485632 -17.52907712 -11.68605142 0 0 Z " fill="#051C3C" transform="translate(376,392)"/>
  <path d="M0 0 C6.19513596 4.19555317 10.76215539 8.86991135 12.55540466 16.30180359 C13.0403321 19.24477072 13.1199122 22.00100403 13.11352539 24.98364258 C13.11340454 26.18089966 13.11328369 27.37815674 13.11315918 28.61169434 C13.10804321 29.86003052 13.10292725 31.1083667 13.09765625 32.39453125 C13.09664917 33.54932983 13.09564209 34.70412842 13.09460449 35.8939209 C13.08937972 40.20012406 13.07541845 44.50631305 13.0625 48.8125 C13.041875 58.444375 13.02125 68.07625 13 78 C-8.45 78 -29.9 78 -52 78 C-52.103125 67.97625 -52.20625 57.9525 -52.3125 47.625 C-52.35802002 44.4792041 -52.40354004 41.3334082 -52.45043945 38.09228516 C-52.46505445 35.57455509 -52.47779272 33.05681314 -52.48828125 30.5390625 C-52.51386108 29.25153076 -52.53944092 27.96399902 -52.5657959 26.63745117 C-52.56998745 17.91400392 -51.43450591 10.63929303 -45.21211243 4.12954712 C-33.09151747 -6.52162622 -13.97695961 -6.46479527 0 0 Z " fill="#051C3C" transform="translate(576,426)"/>
  <path d="M0 0 C8.77495145 6.36294962 15.27416134 14.76817625 17.50390625 25.4921875 C18.66260643 38.65923505 17.14627058 50.04226985 8.50390625 60.4921875 C1.34269105 68.08496369 -6.71602601 73.06226636 -17.25390625 73.73046875 C-30.43848148 74.06733404 -39.61768369 71.78282268 -49.49609375 62.4921875 C-58.35411516 52.82530445 -61.03318648 42.22854611 -60.76953125 29.3515625 C-60.01568621 18.71157829 -55.01829341 10.76385258 -47.4296875 3.51953125 C-33.93984489 -7.84668676 -15.16574683 -9.16115536 0 0 Z " fill="#F59126" transform="translate(807.49609375,527.5078125)"/>
  <path d="M0 0 C7.23999807 5.28519859 11.78217269 11.63057533 13.46875 20.5234375 C14.46961891 29.48506375 12.40212179 38.03785824 6.96875 45.3359375 C0.59810883 51.91310818 -7.17070485 54.8849904 -16.21875 55.1484375 C-24.94906338 54.75606386 -31.48642052 52.2583871 -37.9609375 46.37109375 C-43.8082107 39.4910932 -45.91107719 31.54236176 -45.8046875 22.72265625 C-45.07701101 14.20884131 -41.01206492 7.03641806 -34.53125 1.5234375 C-23.44564291 -5.34314809 -11.67085012 -6.8079959 0 0 Z " fill="#051C3C" transform="translate(482.53125,320.4765625)"/>
  <path d="M0 0 C6.40932012 4.25407339 10.8705422 9.54203592 13 17 C14.41185688 27.42187481 13.4522388 36.29080524 7 45 C0.65955355 51.64915733 -6.80730521 54.98099026 -15.9375 55.4375 C-24.49106013 55.13248933 -33.10608356 51.22135624 -39 45 C-45.42003467 36.24790146 -46.41459915 27.44211735 -45 17 C-42.58967658 8.558365 -37.17431364 3.30881157 -29.94140625 -1.31640625 C-20.44249721 -6.31858404 -9.13964312 -5.27407488 0 0 Z " fill="#051C3B" transform="translate(364,323)"/>
  <path d="M0 0 C5.23988008 3.17773373 9.18170384 7.85847691 12 13.25 C13.27032115 20.58963331 13.84807905 28.0641286 9.96484375 34.68359375 C6.13082533 39.64966218 1.59611864 43.60780007 -4.4375 45.5 C-12.0329102 46.33637039 -19.24492762 46.37529273 -25.4375 41.5 C-31.66727257 35.57924393 -34.70265753 30.55059685 -34.9375 21.8125 C-34.80204037 14.62561383 -33.30416944 9.83574601 -28.4375 4.5 C-20.68472192 -2.57121517 -9.72461151 -4.19196846 0 0 Z " fill="#051B3A" transform="translate(567.4375,370.5)"/>
  <path d="M0 0 C5.88220048 3.50190325 10.57472749 8.96233861 12.625 15.5 C13.46137039 23.0954102 13.50029273 30.30742762 8.625 36.5 C3.91601925 41.45475219 -0.4524655 45.06806918 -7.42578125 45.8359375 C-15.63922584 45.93430211 -21.27724282 45.39449541 -27.34375 39.62890625 C-33.48257453 32.97431982 -34.86275483 27.74380727 -34.6796875 18.72265625 C-33.95198414 11.02579378 -30.20041501 6.84180607 -24.47265625 1.9453125 C-17.57992067 -2.80387217 -7.66644301 -3.3906382 0 0 Z " fill="#051B3B" transform="translate(272.375,370.5)"/>
  <path d="M0 0 C0.69652536 10.27374909 -1.70771454 20.36626464 -8.44140625 28.359375 C-16.58803444 36.93477309 -25.26301246 39.82058906 -36.875 40.25 C-43.4231368 40.1602995 -48.78328302 38.83120098 -53.875 34.625 C-54.926875 33.325625 -54.926875 33.325625 -56 32 C-56.8971875 30.9171875 -56.8971875 30.9171875 -57.8125 29.8125 C-59.61999421 25.53159266 -59.63981499 21.57430944 -59 17 C-56.45457082 11.37884389 -52.42802577 8.56925123 -47 6 C-38.58856048 3.31871442 -30.00140858 2.20920088 -21.25 1.3125 C-19.50009766 1.11817383 -19.50009766 1.11817383 -17.71484375 0.91992188 C-11.77514991 0.28424683 -5.97295234 -0.15447291 0 0 Z " fill="#FCFCFD" transform="translate(413,603)"/>
  <path d="M0 0 C2.29790514 3.4468577 2.24434461 4.70118952 2.22705078 8.7565918 C2.22682419 10.52808846 2.22682419 10.52808846 2.22659302 12.33537292 C2.21627045 13.61044205 2.20594788 14.88551117 2.1953125 16.19921875 C2.1924826 17.50454056 2.18965271 18.80986237 2.18673706 20.15473938 C2.17910747 23.62195515 2.15946493 27.08900288 2.1373291 30.55615234 C2.11685605 34.09535448 2.10773223 37.63458382 2.09765625 41.17382812 C2.0762183 48.11595437 2.04209056 55.05796911 2 62 C-1.3 61.67 -4.6 61.34 -8 61 C-8 60.67 -8 60.34 -8 60 C-5.36 60 -2.72 60 0 60 C0 40.2 0 20.4 0 0 Z " fill="#07112E" transform="translate(587,442)"/>
  <path d="M0 0 C14.19 0 28.38 0 43 0 C42.67 6.93 42.34 13.86 42 21 C41.67 21 41.34 21 41 21 C41 14.73 41 8.46 41 2 C27.8 2 14.6 2 1 2 C1 4.31 1 6.62 1 9 C0.67 9 0.34 9 0 9 C0 6.03 0 3.06 0 0 Z " fill="#252D3F" transform="translate(481,514)"/>
  <path d="M0 0 C1 3 1 3 1 5 C0.34 5 -0.32 5 -1 5 C-1.33 6.65 -1.66 8.3 -2 10 C-2.66 10 -3.32 10 -4 10 C-3.52449439 8.51965236 -3.04448784 7.04074979 -2.5625 5.5625 C-2.29566406 4.73878906 -2.02882813 3.91507812 -1.75390625 3.06640625 C-1 1 -1 1 0 0 Z " fill="#10182C" transform="translate(426,402)"/>
  <path d="M0 0 C0.33 0 0.66 0 1 0 C0.67 2.31 0.34 4.62 0 7 C-0.99 7 -1.98 7 -3 7 C-2.38722388 4.03824877 -1.74627478 2.61941217 0 0 Z " fill="#05112A" transform="translate(318,603)"/>
  <path d="M0 0 C0.33 1.32 0.66 2.64 1 4 C-0.32 4.99 -1.64 5.98 -3 7 C-3.66 6.67 -4.32 6.34 -5 6 C-3.35 4.02 -1.7 2.04 0 0 Z " fill="#040F26" transform="translate(671,526)"/>
</svg>
